<?xml version="1.0" encoding="UTF-8"?>
<svg xmlns="http://www.w3.org/2000/svg" viewBox="0 0 53 53" role="img" aria-labelledby="title desc" shape-rendering="crispEdges">
  <title id="title">QR code for the PathoSynVLM project website</title>
  <desc id="desc">Scan to open https://atlasanalyticslab.github.io/PathoSynVLM/</desc>
  <!-- Direct target: https://atlasanalyticslab.github.io/PathoSynVLM/; error correction: H; quiet zone: 4 modules. -->
  <rect width="53" height="53" fill="#fff"/>
  <path fill="#000" d="M6 6h1v1h-1z M7 6h1v1h-1z M8 6h1v1h-1z M9 6h1v1h-1z M10 6h1v1h-1z M11 6h1v1h-1z M12 6h1v1h-1z M15 6h1v1h-1z M16 6h1v1h-1z M17 6h1v1h-1z M18 6h1v1h-1z M19 6h1v1h-1z M20 6h1v1h-1z M21 6h1v1h-1z M23 6h1v1h-1z M24 6h1v1h-1z M30 6h1v1h-1z M31 6h1v1h-1z M32 6h1v1h-1z M40 6h1v1h-1z M41 6h1v1h-1z M42 6h1v1h-1z M43 6h1v1h-1z M44 6h1v1h-1z M45 6h1v1h-1z M46 6h1v1h-1z M6 7h1v1h-1z M12 7h1v1h-1z M14 7h1v1h-1z M16 7h1v1h-1z M18 7h1v1h-1z M21 7h1v1h-1z M27 7h1v1h-1z M29 7h1v1h-1z M30 7h1v1h-1z M34 7h1v1h-1z M35 7h1v1h-1z M36 7h1v1h-1z M38 7h1v1h-1z M40 7h1v1h-1z M46 7h1v1h-1z M6 8h1v1h-1z M8 8h1v1h-1z M9 8h1v1h-1z M10 8h1v1h-1z M12 8h1v1h-1z M14 8h1v1h-1z M16 8h1v1h-1z M17 8h1v1h-1z M20 8h1v1h-1z M22 8h1v1h-1z M24 8h1v1h-1z M26 8h1v1h-1z M27 8h1v1h-1z M31 8h1v1h-1z M33 8h1v1h-1z M34 8h1v1h-1z M36 8h1v1h-1z M37 8h1v1h-1z M38 8h1v1h-1z M40 8h1v1h-1z M42 8h1v1h-1z M43 8h1v1h-1z M44 8h1v1h-1z M46 8h1v1h-1z M6 9h1v1h-1z M8 9h1v1h-1z M9 9h1v1h-1z M10 9h1v1h-1z M12 9h1v1h-1z M14 9h1v1h-1z M15 9h1v1h-1z M18 9h1v1h-1z M19 9h1v1h-1z M22 9h1v1h-1z M23 9h1v1h-1z M24 9h1v1h-1z M27 9h1v1h-1z M33 9h1v1h-1z M34 9h1v1h-1z M36 9h1v1h-1z M40 9h1v1h-1z M42 9h1v1h-1z M43 9h1v1h-1z M44 9h1v1h-1z M46 9h1v1h-1z M6 10h1v1h-1z M8 10h1v1h-1z M9 10h1v1h-1z M10 10h1v1h-1z M12 10h1v1h-1z M14 10h1v1h-1z M15 10h1v1h-1z M18 10h1v1h-1z M20 10h1v1h-1z M23 10h1v1h-1z M24 10h1v1h-1z M25 10h1v1h-1z M29 10h1v1h-1z M30 10h1v1h-1z M31 10h1v1h-1z M35 10h1v1h-1z M36 10h1v1h-1z M40 10h1v1h-1z M42 10h1v1h-1z M43 10h1v1h-1z M44 10h1v1h-1z M46 10h1v1h-1z M6 11h1v1h-1z M12 11h1v1h-1z M14 11h1v1h-1z M16 11h1v1h-1z M17 11h1v1h-1z M18 11h1v1h-1z M21 11h1v1h-1z M24 11h1v1h-1z M25 11h1v1h-1z M28 11h1v1h-1z M29 11h1v1h-1z M34 11h1v1h-1z M40 11h1v1h-1z M46 11h1v1h-1z M6 12h1v1h-1z M7 12h1v1h-1z M8 12h1v1h-1z M9 12h1v1h-1z M10 12h1v1h-1z M11 12h1v1h-1z M12 12h1v1h-1z M14 12h1v1h-1z M16 12h1v1h-1z M18 12h1v1h-1z M20 12h1v1h-1z M22 12h1v1h-1z M24 12h1v1h-1z M26 12h1v1h-1z M28 12h1v1h-1z M30 12h1v1h-1z M32 12h1v1h-1z M34 12h1v1h-1z M36 12h1v1h-1z M38 12h1v1h-1z M40 12h1v1h-1z M41 12h1v1h-1z M42 12h1v1h-1z M43 12h1v1h-1z M44 12h1v1h-1z M45 12h1v1h-1z M46 12h1v1h-1z M15 13h1v1h-1z M16 13h1v1h-1z M17 13h1v1h-1z M25 13h1v1h-1z M26 13h1v1h-1z M27 13h1v1h-1z M29 13h1v1h-1z M30 13h1v1h-1z M31 13h1v1h-1z M32 13h1v1h-1z M36 13h1v1h-1z M38 13h1v1h-1z M8 14h1v1h-1z M11 14h1v1h-1z M12 14h1v1h-1z M13 14h1v1h-1z M14 14h1v1h-1z M17 14h1v1h-1z M18 14h1v1h-1z M19 14h1v1h-1z M21 14h1v1h-1z M23 14h1v1h-1z M28 14h1v1h-1z M29 14h1v1h-1z M31 14h1v1h-1z M32 14h1v1h-1z M34 14h1v1h-1z M38 14h1v1h-1z M39 14h1v1h-1z M41 14h1v1h-1z M42 14h1v1h-1z M43 14h1v1h-1z M44 14h1v1h-1z M45 14h1v1h-1z M6 15h1v1h-1z M8 15h1v1h-1z M11 15h1v1h-1z M13 15h1v1h-1z M15 15h1v1h-1z M16 15h1v1h-1z M17 15h1v1h-1z M21 15h1v1h-1z M24 15h1v1h-1z M26 15h1v1h-1z M27 15h1v1h-1z M29 15h1v1h-1z M31 15h1v1h-1z M33 15h1v1h-1z M34 15h1v1h-1z M36 15h1v1h-1z M37 15h1v1h-1z M38 15h1v1h-1z M40 15h1v1h-1z M41 15h1v1h-1z M44 15h1v1h-1z M6 16h1v1h-1z M7 16h1v1h-1z M9 16h1v1h-1z M10 16h1v1h-1z M12 16h1v1h-1z M14 16h1v1h-1z M16 16h1v1h-1z M17 16h1v1h-1z M18 16h1v1h-1z M20 16h1v1h-1z M22 16h1v1h-1z M23 16h1v1h-1z M27 16h1v1h-1z M28 16h1v1h-1z M30 16h1v1h-1z M32 16h1v1h-1z M33 16h1v1h-1z M35 16h1v1h-1z M36 16h1v1h-1z M37 16h1v1h-1z M42 16h1v1h-1z M43 16h1v1h-1z M44 16h1v1h-1z M46 16h1v1h-1z M8 17h1v1h-1z M9 17h1v1h-1z M14 17h1v1h-1z M15 17h1v1h-1z M18 17h1v1h-1z M19 17h1v1h-1z M21 17h1v1h-1z M22 17h1v1h-1z M25 17h1v1h-1z M26 17h1v1h-1z M28 17h1v1h-1z M29 17h1v1h-1z M31 17h1v1h-1z M32 17h1v1h-1z M33 17h1v1h-1z M36 17h1v1h-1z M37 17h1v1h-1z M38 17h1v1h-1z M40 17h1v1h-1z M42 17h1v1h-1z M43 17h1v1h-1z M46 17h1v1h-1z M6 18h1v1h-1z M10 18h1v1h-1z M11 18h1v1h-1z M12 18h1v1h-1z M16 18h1v1h-1z M17 18h1v1h-1z M19 18h1v1h-1z M20 18h1v1h-1z M25 18h1v1h-1z M28 18h1v1h-1z M29 18h1v1h-1z M32 18h1v1h-1z M33 18h1v1h-1z M34 18h1v1h-1z M41 18h1v1h-1z M46 18h1v1h-1z M7 19h1v1h-1z M10 19h1v1h-1z M11 19h1v1h-1z M15 19h1v1h-1z M16 19h1v1h-1z M20 19h1v1h-1z M23 19h1v1h-1z M26 19h1v1h-1z M28 19h1v1h-1z M31 19h1v1h-1z M32 19h1v1h-1z M34 19h1v1h-1z M41 19h1v1h-1z M45 19h1v1h-1z M46 19h1v1h-1z M12 20h1v1h-1z M13 20h1v1h-1z M15 20h1v1h-1z M16 20h1v1h-1z M17 20h1v1h-1z M19 20h1v1h-1z M20 20h1v1h-1z M21 20h1v1h-1z M25 20h1v1h-1z M26 20h1v1h-1z M27 20h1v1h-1z M28 20h1v1h-1z M31 20h1v1h-1z M32 20h1v1h-1z M34 20h1v1h-1z M35 20h1v1h-1z M37 20h1v1h-1z M39 20h1v1h-1z M40 20h1v1h-1z M41 20h1v1h-1z M42 20h1v1h-1z M44 20h1v1h-1z M46 20h1v1h-1z M6 21h1v1h-1z M7 21h1v1h-1z M8 21h1v1h-1z M9 21h1v1h-1z M10 21h1v1h-1z M13 21h1v1h-1z M15 21h1v1h-1z M20 21h1v1h-1z M21 21h1v1h-1z M23 21h1v1h-1z M24 21h1v1h-1z M26 21h1v1h-1z M28 21h1v1h-1z M30 21h1v1h-1z M31 21h1v1h-1z M33 21h1v1h-1z M34 21h1v1h-1z M39 21h1v1h-1z M40 21h1v1h-1z M41 21h1v1h-1z M43 21h1v1h-1z M6 22h1v1h-1z M8 22h1v1h-1z M12 22h1v1h-1z M16 22h1v1h-1z M18 22h1v1h-1z M21 22h1v1h-1z M26 22h1v1h-1z M27 22h1v1h-1z M31 22h1v1h-1z M32 22h1v1h-1z M37 22h1v1h-1z M38 22h1v1h-1z M39 22h1v1h-1z M40 22h1v1h-1z M43 22h1v1h-1z M45 22h1v1h-1z M8 23h1v1h-1z M10 23h1v1h-1z M11 23h1v1h-1z M14 23h1v1h-1z M15 23h1v1h-1z M17 23h1v1h-1z M20 23h1v1h-1z M21 23h1v1h-1z M23 23h1v1h-1z M24 23h1v1h-1z M25 23h1v1h-1z M26 23h1v1h-1z M30 23h1v1h-1z M32 23h1v1h-1z M33 23h1v1h-1z M34 23h1v1h-1z M37 23h1v1h-1z M38 23h1v1h-1z M39 23h1v1h-1z M40 23h1v1h-1z M41 23h1v1h-1z M43 23h1v1h-1z M46 23h1v1h-1z M8 24h1v1h-1z M9 24h1v1h-1z M12 24h1v1h-1z M13 24h1v1h-1z M15 24h1v1h-1z M16 24h1v1h-1z M17 24h1v1h-1z M18 24h1v1h-1z M21 24h1v1h-1z M22 24h1v1h-1z M23 24h1v1h-1z M24 24h1v1h-1z M25 24h1v1h-1z M27 24h1v1h-1z M28 24h1v1h-1z M31 24h1v1h-1z M32 24h1v1h-1z M33 24h1v1h-1z M35 24h1v1h-1z M36 24h1v1h-1z M37 24h1v1h-1z M38 24h1v1h-1z M39 24h1v1h-1z M41 24h1v1h-1z M42 24h1v1h-1z M44 24h1v1h-1z M46 24h1v1h-1z M6 25h1v1h-1z M9 25h1v1h-1z M10 25h1v1h-1z M11 25h1v1h-1z M14 25h1v1h-1z M21 25h1v1h-1z M22 25h1v1h-1z M23 25h1v1h-1z M24 25h1v1h-1z M26 25h1v1h-1z M30 25h1v1h-1z M31 25h1v1h-1z M33 25h1v1h-1z M36 25h1v1h-1z M39 25h1v1h-1z M43 25h1v1h-1z M46 25h1v1h-1z M6 26h1v1h-1z M8 26h1v1h-1z M10 26h1v1h-1z M12 26h1v1h-1z M13 26h1v1h-1z M14 26h1v1h-1z M15 26h1v1h-1z M16 26h1v1h-1z M17 26h1v1h-1z M19 26h1v1h-1z M20 26h1v1h-1z M21 26h1v1h-1z M22 26h1v1h-1z M23 26h1v1h-1z M24 26h1v1h-1z M27 26h1v1h-1z M28 26h1v1h-1z M33 26h1v1h-1z M34 26h1v1h-1z M35 26h1v1h-1z M36 26h1v1h-1z M37 26h1v1h-1z M38 26h1v1h-1z M40 26h1v1h-1z M41 26h1v1h-1z M42 26h1v1h-1z M43 26h1v1h-1z M16 27h1v1h-1z M26 27h1v1h-1z M27 27h1v1h-1z M28 27h1v1h-1z M29 27h1v1h-1z M30 27h1v1h-1z M31 27h1v1h-1z M33 27h1v1h-1z M34 27h1v1h-1z M36 27h1v1h-1z M37 27h1v1h-1z M38 27h1v1h-1z M40 27h1v1h-1z M43 27h1v1h-1z M44 27h1v1h-1z M46 27h1v1h-1z M6 28h1v1h-1z M7 28h1v1h-1z M8 28h1v1h-1z M12 28h1v1h-1z M15 28h1v1h-1z M18 28h1v1h-1z M19 28h1v1h-1z M21 28h1v1h-1z M22 28h1v1h-1z M25 28h1v1h-1z M26 28h1v1h-1z M27 28h1v1h-1z M29 28h1v1h-1z M30 28h1v1h-1z M33 28h1v1h-1z M35 28h1v1h-1z M37 28h1v1h-1z M43 28h1v1h-1z M44 28h1v1h-1z M46 28h1v1h-1z M7 29h1v1h-1z M11 29h1v1h-1z M13 29h1v1h-1z M14 29h1v1h-1z M17 29h1v1h-1z M18 29h1v1h-1z M19 29h1v1h-1z M21 29h1v1h-1z M22 29h1v1h-1z M23 29h1v1h-1z M25 29h1v1h-1z M26 29h1v1h-1z M27 29h1v1h-1z M28 29h1v1h-1z M29 29h1v1h-1z M30 29h1v1h-1z M31 29h1v1h-1z M32 29h1v1h-1z M33 29h1v1h-1z M34 29h1v1h-1z M37 29h1v1h-1z M39 29h1v1h-1z M40 29h1v1h-1z M41 29h1v1h-1z M42 29h1v1h-1z M43 29h1v1h-1z M7 30h1v1h-1z M8 30h1v1h-1z M12 30h1v1h-1z M13 30h1v1h-1z M15 30h1v1h-1z M16 30h1v1h-1z M17 30h1v1h-1z M19 30h1v1h-1z M22 30h1v1h-1z M24 30h1v1h-1z M25 30h1v1h-1z M26 30h1v1h-1z M27 30h1v1h-1z M33 30h1v1h-1z M37 30h1v1h-1z M38 30h1v1h-1z M39 30h1v1h-1z M40 30h1v1h-1z M41 30h1v1h-1z M43 30h1v1h-1z M44 30h1v1h-1z M45 30h1v1h-1z M46 30h1v1h-1z M6 31h1v1h-1z M10 31h1v1h-1z M11 31h1v1h-1z M14 31h1v1h-1z M15 31h1v1h-1z M16 31h1v1h-1z M20 31h1v1h-1z M22 31h1v1h-1z M25 31h1v1h-1z M29 31h1v1h-1z M31 31h1v1h-1z M32 31h1v1h-1z M33 31h1v1h-1z M34 31h1v1h-1z M37 31h1v1h-1z M40 31h1v1h-1z M41 31h1v1h-1z M43 31h1v1h-1z M45 31h1v1h-1z M6 32h1v1h-1z M12 32h1v1h-1z M14 32h1v1h-1z M16 32h1v1h-1z M18 32h1v1h-1z M19 32h1v1h-1z M20 32h1v1h-1z M27 32h1v1h-1z M28 32h1v1h-1z M30 32h1v1h-1z M31 32h1v1h-1z M32 32h1v1h-1z M33 32h1v1h-1z M36 32h1v1h-1z M37 32h1v1h-1z M39 32h1v1h-1z M40 32h1v1h-1z M41 32h1v1h-1z M43 32h1v1h-1z M44 32h1v1h-1z M46 32h1v1h-1z M6 33h1v1h-1z M7 33h1v1h-1z M9 33h1v1h-1z M10 33h1v1h-1z M13 33h1v1h-1z M17 33h1v1h-1z M23 33h1v1h-1z M24 33h1v1h-1z M25 33h1v1h-1z M26 33h1v1h-1z M31 33h1v1h-1z M37 33h1v1h-1z M38 33h1v1h-1z M39 33h1v1h-1z M41 33h1v1h-1z M42 33h1v1h-1z M43 33h1v1h-1z M46 33h1v1h-1z M6 34h1v1h-1z M8 34h1v1h-1z M9 34h1v1h-1z M11 34h1v1h-1z M12 34h1v1h-1z M14 34h1v1h-1z M16 34h1v1h-1z M20 34h1v1h-1z M22 34h1v1h-1z M23 34h1v1h-1z M25 34h1v1h-1z M26 34h1v1h-1z M27 34h1v1h-1z M29 34h1v1h-1z M30 34h1v1h-1z M33 34h1v1h-1z M36 34h1v1h-1z M38 34h1v1h-1z M39 34h1v1h-1z M40 34h1v1h-1z M7 35h1v1h-1z M9 35h1v1h-1z M11 35h1v1h-1z M18 35h1v1h-1z M20 35h1v1h-1z M23 35h1v1h-1z M24 35h1v1h-1z M25 35h1v1h-1z M27 35h1v1h-1z M29 35h1v1h-1z M32 35h1v1h-1z M35 35h1v1h-1z M38 35h1v1h-1z M39 35h1v1h-1z M41 35h1v1h-1z M43 35h1v1h-1z M44 35h1v1h-1z M46 35h1v1h-1z M6 36h1v1h-1z M7 36h1v1h-1z M8 36h1v1h-1z M9 36h1v1h-1z M12 36h1v1h-1z M14 36h1v1h-1z M16 36h1v1h-1z M17 36h1v1h-1z M19 36h1v1h-1z M21 36h1v1h-1z M26 36h1v1h-1z M27 36h1v1h-1z M29 36h1v1h-1z M31 36h1v1h-1z M32 36h1v1h-1z M33 36h1v1h-1z M35 36h1v1h-1z M36 36h1v1h-1z M38 36h1v1h-1z M39 36h1v1h-1z M42 36h1v1h-1z M43 36h1v1h-1z M44 36h1v1h-1z M46 36h1v1h-1z M8 37h1v1h-1z M9 37h1v1h-1z M11 37h1v1h-1z M13 37h1v1h-1z M14 37h1v1h-1z M15 37h1v1h-1z M16 37h1v1h-1z M22 37h1v1h-1z M30 37h1v1h-1z M31 37h1v1h-1z M37 37h1v1h-1z M38 37h1v1h-1z M40 37h1v1h-1z M42 37h1v1h-1z M43 37h1v1h-1z M6 38h1v1h-1z M7 38h1v1h-1z M12 38h1v1h-1z M14 38h1v1h-1z M15 38h1v1h-1z M18 38h1v1h-1z M19 38h1v1h-1z M20 38h1v1h-1z M25 38h1v1h-1z M26 38h1v1h-1z M33 38h1v1h-1z M38 38h1v1h-1z M39 38h1v1h-1z M40 38h1v1h-1z M41 38h1v1h-1z M42 38h1v1h-1z M46 38h1v1h-1z M14 39h1v1h-1z M15 39h1v1h-1z M18 39h1v1h-1z M20 39h1v1h-1z M23 39h1v1h-1z M25 39h1v1h-1z M27 39h1v1h-1z M29 39h1v1h-1z M30 39h1v1h-1z M34 39h1v1h-1z M35 39h1v1h-1z M37 39h1v1h-1z M38 39h1v1h-1z M42 39h1v1h-1z M46 39h1v1h-1z M6 40h1v1h-1z M7 40h1v1h-1z M8 40h1v1h-1z M9 40h1v1h-1z M10 40h1v1h-1z M11 40h1v1h-1z M12 40h1v1h-1z M14 40h1v1h-1z M15 40h1v1h-1z M17 40h1v1h-1z M21 40h1v1h-1z M26 40h1v1h-1z M31 40h1v1h-1z M32 40h1v1h-1z M33 40h1v1h-1z M37 40h1v1h-1z M38 40h1v1h-1z M40 40h1v1h-1z M42 40h1v1h-1z M43 40h1v1h-1z M46 40h1v1h-1z M6 41h1v1h-1z M12 41h1v1h-1z M14 41h1v1h-1z M15 41h1v1h-1z M17 41h1v1h-1z M20 41h1v1h-1z M22 41h1v1h-1z M23 41h1v1h-1z M25 41h1v1h-1z M30 41h1v1h-1z M31 41h1v1h-1z M32 41h1v1h-1z M33 41h1v1h-1z M34 41h1v1h-1z M35 41h1v1h-1z M37 41h1v1h-1z M38 41h1v1h-1z M42 41h1v1h-1z M45 41h1v1h-1z M6 42h1v1h-1z M8 42h1v1h-1z M9 42h1v1h-1z M10 42h1v1h-1z M12 42h1v1h-1z M15 42h1v1h-1z M17 42h1v1h-1z M18 42h1v1h-1z M20 42h1v1h-1z M23 42h1v1h-1z M24 42h1v1h-1z M27 42h1v1h-1z M29 42h1v1h-1z M30 42h1v1h-1z M31 42h1v1h-1z M32 42h1v1h-1z M34 42h1v1h-1z M35 42h1v1h-1z M37 42h1v1h-1z M38 42h1v1h-1z M39 42h1v1h-1z M40 42h1v1h-1z M41 42h1v1h-1z M42 42h1v1h-1z M43 42h1v1h-1z M45 42h1v1h-1z M46 42h1v1h-1z M6 43h1v1h-1z M8 43h1v1h-1z M9 43h1v1h-1z M10 43h1v1h-1z M12 43h1v1h-1z M15 43h1v1h-1z M16 43h1v1h-1z M21 43h1v1h-1z M22 43h1v1h-1z M23 43h1v1h-1z M24 43h1v1h-1z M26 43h1v1h-1z M27 43h1v1h-1z M28 43h1v1h-1z M30 43h1v1h-1z M32 43h1v1h-1z M33 43h1v1h-1z M34 43h1v1h-1z M35 43h1v1h-1z M37 43h1v1h-1z M38 43h1v1h-1z M41 43h1v1h-1z M42 43h1v1h-1z M43 43h1v1h-1z M44 43h1v1h-1z M45 43h1v1h-1z M46 43h1v1h-1z M6 44h1v1h-1z M8 44h1v1h-1z M9 44h1v1h-1z M10 44h1v1h-1z M12 44h1v1h-1z M14 44h1v1h-1z M16 44h1v1h-1z M19 44h1v1h-1z M20 44h1v1h-1z M23 44h1v1h-1z M28 44h1v1h-1z M33 44h1v1h-1z M34 44h1v1h-1z M35 44h1v1h-1z M39 44h1v1h-1z M42 44h1v1h-1z M44 44h1v1h-1z M45 44h1v1h-1z M46 44h1v1h-1z M6 45h1v1h-1z M12 45h1v1h-1z M15 45h1v1h-1z M16 45h1v1h-1z M19 45h1v1h-1z M20 45h1v1h-1z M22 45h1v1h-1z M23 45h1v1h-1z M25 45h1v1h-1z M26 45h1v1h-1z M28 45h1v1h-1z M29 45h1v1h-1z M30 45h1v1h-1z M31 45h1v1h-1z M32 45h1v1h-1z M33 45h1v1h-1z M34 45h1v1h-1z M37 45h1v1h-1z M38 45h1v1h-1z M6 46h1v1h-1z M7 46h1v1h-1z M8 46h1v1h-1z M9 46h1v1h-1z M10 46h1v1h-1z M11 46h1v1h-1z M12 46h1v1h-1z M15 46h1v1h-1z M17 46h1v1h-1z M20 46h1v1h-1z M22 46h1v1h-1z M25 46h1v1h-1z M26 46h1v1h-1z M28 46h1v1h-1z M29 46h1v1h-1z M31 46h1v1h-1z M34 46h1v1h-1z M38 46h1v1h-1z M42 46h1v1h-1z M43 46h1v1h-1z M46 46h1v1h-1z"/>
</svg>
